<?xml version="1.0" encoding="utf-8"?>
<!-- Generator: Adobe Illustrator 18.1.1, SVG Export Plug-In . SVG Version: 6.00 Build 0)  -->
<svg version="1.1" id="Layer_1" xmlns="http://www.w3.org/2000/svg" xmlns:xlink="http://www.w3.org/1999/xlink" x="0px" y="0px"
	 viewBox="0 0 882 594" enable-background="new 0 0 882 594" xml:space="preserve">
<path fill="none" stroke="#FFFFFF" stroke-width="8" stroke-linecap="square" stroke-miterlimit="10" d="M477,9"/>
<line fill="none" stroke="#FFFFFF" stroke-width="8" stroke-linecap="square" stroke-miterlimit="10" x1="477" y1="9" x2="477" y2="585"/>
<line fill="none" stroke="#FFFFFF" stroke-width="8" stroke-linecap="square" stroke-miterlimit="10" x1="477" y1="585" x2="621" y2="585"/>
<line fill="none" stroke="#FFFFFF" stroke-width="8" stroke-linecap="square" stroke-miterlimit="10" x1="477" y1="9" x2="621" y2="9"/>
<line fill="none" stroke="#FFFFFF" stroke-width="8" stroke-linecap="square" stroke-miterlimit="10" x1="621" y1="9" x2="621" y2="225"/>
<line fill="none" stroke="#FFFFFF" stroke-width="8" stroke-linecap="square" stroke-miterlimit="10" x1="621" y1="585" x2="621" y2="369"/>
<line fill="none" stroke="#FFFFFF" stroke-width="8" stroke-linecap="square" stroke-miterlimit="10" x1="621" y1="369" x2="729" y2="369"/>
<line fill="none" stroke="#FFFFFF" stroke-width="8" stroke-linecap="square" stroke-miterlimit="10" x1="621" y1="225" x2="729" y2="225"/>
<path fill="none" stroke="#FFFFFF" stroke-width="8" stroke-linecap="square" stroke-miterlimit="10" d="M873,9"/>
<line fill="none" stroke="#FFFFFF" stroke-width="8" stroke-linecap="square" stroke-miterlimit="10" x1="873" y1="9" x2="873" y2="585"/>
<line fill="none" stroke="#FFFFFF" stroke-width="8" stroke-linecap="square" stroke-miterlimit="10" x1="873" y1="585" x2="729" y2="585"/>
<line fill="none" stroke="#FFFFFF" stroke-width="8" stroke-linecap="square" stroke-miterlimit="10" x1="873" y1="9" x2="729" y2="9"/>
<line fill="none" stroke="#FFFFFF" stroke-width="8" stroke-linecap="square" stroke-miterlimit="10" x1="729" y1="9" x2="729" y2="225"/>
<line fill="none" stroke="#FFFFFF" stroke-width="8" stroke-linecap="square" stroke-miterlimit="10" x1="729" y1="585" x2="729" y2="369"/>
<line fill="none" stroke="#FFFFFF" stroke-width="8" stroke-linecap="round" stroke-miterlimit="10" x1="477" y1="9" x2="549" y2="81"/>
<line fill="none" stroke="#FFFFFF" stroke-width="8" stroke-linecap="round" stroke-miterlimit="10" x1="549" y1="81" x2="621" y2="9"/>
<line fill="none" stroke="#FFFFFF" stroke-width="8" stroke-linecap="round" stroke-miterlimit="10" x1="477" y1="585" x2="549" y2="513"/>
<line fill="none" stroke="#FFFFFF" stroke-width="8" stroke-linecap="round" stroke-miterlimit="10" x1="549" y1="513" x2="621" y2="585"/>
<line fill="none" stroke="#FFFFFF" stroke-width="8" stroke-linecap="square" stroke-miterlimit="10" x1="549" y1="513" x2="549" y2="81"/>
<line fill="none" stroke="#FFFFFF" stroke-width="8" stroke-linecap="square" stroke-miterlimit="10" x1="549" y1="297" x2="801" y2="297"/>
<line fill="none" stroke="#FFFFFF" stroke-width="8" stroke-linecap="round" stroke-miterlimit="10" x1="729" y1="9" x2="801" y2="81"/>
<line fill="none" stroke="#FFFFFF" stroke-width="8" stroke-linecap="round" stroke-miterlimit="10" x1="801" y1="81" x2="873" y2="9"/>
<line fill="none" stroke="#FFFFFF" stroke-width="8" stroke-linecap="round" stroke-miterlimit="10" x1="729" y1="585" x2="801" y2="513"/>
<line fill="none" stroke="#FFFFFF" stroke-width="8" stroke-linecap="round" stroke-miterlimit="10" x1="801" y1="513" x2="873" y2="585"/>
<line fill="none" stroke="#FFFFFF" stroke-width="8" stroke-linecap="square" stroke-miterlimit="10" x1="801" y1="513" x2="801" y2="81"/>
<line fill="none" stroke="#FFFFFF" stroke-width="8" stroke-linecap="round" stroke-miterlimit="10" x1="549" y1="297" x2="621" y2="225"/>
<line fill="none" stroke="#FFFFFF" stroke-width="8" stroke-linecap="round" stroke-miterlimit="10" x1="729" y1="225" x2="801" y2="297"/>
<line fill="none" stroke="#FFFFFF" stroke-width="8" stroke-linecap="round" stroke-miterlimit="10" x1="801" y1="297" x2="729" y2="369"/>
<line fill="none" stroke="#FFFFFF" stroke-width="8" stroke-linecap="round" stroke-miterlimit="10" x1="621" y1="369" x2="549" y2="297"/>
<path fill="none" stroke="#FFFFFF" stroke-width="8" stroke-linecap="square" stroke-miterlimit="10" d="M9,9"/>
<line fill="none" stroke="#FFFFFF" stroke-width="8" stroke-linecap="square" stroke-miterlimit="10" x1="9" y1="9" x2="9" y2="585"/>
<line fill="none" stroke="#FFFFFF" stroke-width="8" stroke-linecap="square" stroke-miterlimit="10" x1="9" y1="585" x2="153" y2="585"/>
<line fill="none" stroke="#FFFFFF" stroke-width="8" stroke-linecap="square" stroke-miterlimit="10" x1="9" y1="9" x2="405" y2="9"/>
<line fill="none" stroke="#FFFFFF" stroke-width="8" stroke-linecap="round" stroke-miterlimit="10" x1="153" y1="153" x2="153" y2="225"/>
<line fill="none" stroke="#FFFFFF" stroke-width="8" stroke-linecap="square" stroke-miterlimit="10" x1="153" y1="585" x2="153" y2="369"/>
<line fill="none" stroke="#FFFFFF" stroke-width="8" stroke-linecap="square" stroke-miterlimit="10" x1="153" y1="369" x2="261" y2="369"/>
<line fill="none" stroke="#FFFFFF" stroke-width="8" stroke-linecap="square" stroke-miterlimit="10" x1="153" y1="225" x2="261" y2="225"/>
<path fill="none" stroke="#FFFFFF" stroke-width="8" stroke-linecap="square" stroke-miterlimit="10" d="M405,9"/>
<line fill="none" stroke="#FFFFFF" stroke-width="8" stroke-linecap="square" stroke-miterlimit="10" x1="405" y1="9" x2="405" y2="585"/>
<line fill="none" stroke="#FFFFFF" stroke-width="8" stroke-linecap="square" stroke-miterlimit="10" x1="405" y1="585" x2="261" y2="585"/>
<line fill="none" stroke="#FFFFFF" stroke-width="8" stroke-linecap="round" stroke-miterlimit="10" x1="261" y1="153" x2="261" y2="225"/>
<line fill="none" stroke="#FFFFFF" stroke-width="8" stroke-linecap="square" stroke-miterlimit="10" x1="261" y1="585" x2="261" y2="369"/>
<line fill="none" stroke="#FFFFFF" stroke-width="8" stroke-linecap="round" stroke-miterlimit="10" x1="9" y1="9" x2="81" y2="81"/>
<line fill="none" stroke="#FFFFFF" stroke-width="8" stroke-linecap="round" stroke-miterlimit="10" x1="9" y1="585" x2="81" y2="513"/>
<line fill="none" stroke="#FFFFFF" stroke-width="8" stroke-linecap="round" stroke-miterlimit="10" x1="81" y1="513" x2="153" y2="585"/>
<line fill="none" stroke="#FFFFFF" stroke-width="8" stroke-linecap="square" stroke-miterlimit="10" x1="81" y1="513" x2="81" y2="81"/>
<line fill="none" stroke="#FFFFFF" stroke-width="8" stroke-linecap="square" stroke-miterlimit="10" x1="81" y1="297" x2="333" y2="297"/>
<line fill="none" stroke="#FFFFFF" stroke-width="8" stroke-linecap="round" stroke-miterlimit="10" x1="333" y1="81" x2="405" y2="9"/>
<line fill="none" stroke="#FFFFFF" stroke-width="8" stroke-linecap="round" stroke-miterlimit="10" x1="261" y1="585" x2="333" y2="513"/>
<line fill="none" stroke="#FFFFFF" stroke-width="8" stroke-linecap="round" stroke-miterlimit="10" x1="333" y1="513" x2="405" y2="585"/>
<line fill="none" stroke="#FFFFFF" stroke-width="8" stroke-linecap="square" stroke-miterlimit="10" x1="333" y1="513" x2="333" y2="81"/>
<line fill="none" stroke="#FFFFFF" stroke-width="8" stroke-linecap="round" stroke-miterlimit="10" x1="81" y1="297" x2="153" y2="225"/>
<line fill="none" stroke="#FFFFFF" stroke-width="8" stroke-linecap="round" stroke-miterlimit="10" x1="261" y1="225" x2="333" y2="297"/>
<line fill="none" stroke="#FFFFFF" stroke-width="8" stroke-linecap="round" stroke-miterlimit="10" x1="333" y1="297" x2="261" y2="369"/>
<line fill="none" stroke="#FFFFFF" stroke-width="8" stroke-linecap="round" stroke-miterlimit="10" x1="153" y1="369" x2="81" y2="297"/>
<line fill="none" stroke="#FFFFFF" stroke-width="8" stroke-linecap="round" stroke-miterlimit="10" x1="81" y1="81" x2="153" y2="153"/>
<line fill="none" stroke="#FFFFFF" stroke-width="8" stroke-linecap="round" stroke-miterlimit="10" x1="261" y1="153" x2="333" y2="81"/>
<line fill="none" stroke="#FFFFFF" stroke-width="8" stroke-miterlimit="10" x1="81" y1="81" x2="333" y2="81"/>
<line fill="none" stroke="#FFFFFF" stroke-width="8" stroke-linecap="round" stroke-miterlimit="10" x1="153" y1="153" x2="261" y2="153"/>
</svg>
